<?xml version="1.0" standalone="no"?>
<!DOCTYPE svg PUBLIC "-//W3C//DTD SVG 20010904//EN"
 "http://www.w3.org/TR/2001/REC-SVG-20010904/DTD/svg10.dtd">
<svg version="1.0" xmlns="http://www.w3.org/2000/svg"
 width="768.000000pt" height="768.000000pt" viewBox="0 0 768.000000 768.000000"
 preserveAspectRatio="xMidYMid meet">
<metadata>
Created by potrace 1.11, written by Peter Selinger 2001-2013
</metadata>
<g transform="translate(0.000000,768.000000) scale(0.100000,-0.100000)"
fill="#000000" stroke="none">
<path d="M960 4638 c0 -1851 0 -1808 41 -1923 32 -88 98 -192 166 -262 87 -89
236 -173 355 -199 36 -8 333 -12 1178 -17 604 -4 591 -3 733 -73 86 -42 151
-90 206 -149 l41 -45 0 1669 c0 962 -4 1681 -9 1698 -5 15 -17 55 -27 88 -73
248 -318 454 -579 489 -22 3 -355 5 -741 6 -760 1 -757 1 -868 57 -28 14 -78
53 -111 87 -93 93 -135 188 -144 324 -1 9 -32 12 -121 12 l-120 0 0 -1762z
m365 1135 c57 -34 157 -71 213 -79 20 -3 43 -7 50 -9 7 -3 333 -5 725 -5 l712
-1 72 -24 c168 -53 283 -175 328 -345 12 -47 15 -269 15 -1467 0 -777 -1
-1413 -2 -1413 -2 0 -25 7 -52 15 -26 8 -69 18 -95 21 -25 3 -55 8 -65 10 -11
2 -376 4 -811 4 -861 1 -848 0 -959 58 -65 34 -164 133 -198 198 -60 116 -57
32 -58 1647 l0 1479 37 -30 c21 -16 61 -43 88 -59z"/>
<path d="M6479 6398 c0 -2 -2 -21 -3 -43 -5 -57 -24 -122 -53 -180 -33 -64
-133 -163 -201 -198 -107 -56 -116 -56 -882 -57 -410 -1 -724 -5 -750 -11 -25
-5 -56 -12 -69 -15 -46 -10 -126 -47 -191 -89 -157 -102 -262 -247 -309 -430
-20 -79 -21 -99 -21 -1737 0 -912 1 -1658 3 -1658 2 0 29 25 60 55 70 68 149
119 232 150 144 55 129 54 983 55 848 0 877 2 994 51 74 32 174 97 235 156 77
75 168 226 187 314 3 13 10 44 15 69 6 28 10 711 11 1808 l0 1762 -120 0 c-66
0 -120 -1 -121 -2z m1 -2016 c-1 -1605 2 -1520 -56 -1641 -33 -68 -134 -171
-202 -205 -110 -56 -100 -55 -951 -56 -432 0 -802 -3 -821 -5 -72 -9 -106 -16
-154 -30 -27 -8 -51 -15 -53 -15 -2 0 -3 636 -3 1413 1 1531 -2 1456 55 1573
68 138 223 245 374 259 25 2 359 5 741 5 643 1 700 3 764 20 84 22 218 88 266
130 19 16 36 30 38 30 1 0 2 -665 2 -1478z"/>
<path d="M323 4273 c1 -907 6 -1661 10 -1678 5 -16 12 -49 17 -72 46 -202 166
-416 323 -573 182 -181 425 -303 677 -339 36 -5 290 -10 565 -11 604 -1 648
-3 810 -35 300 -59 606 -228 828 -459 58 -61 197 -238 197 -252 0 -4 6 -15 14
-23 7 -9 27 -42 43 -73 23 -43 33 -54 41 -46 7 7 12 15 12 19 0 17 77 139 143
227 88 118 201 231 319 319 84 63 121 86 238 150 108 60 298 122 452 148 123
22 187 24 778 26 458 1 514 3 599 21 262 54 462 165 654 363 105 109 252 370
272 484 3 19 8 38 11 43 3 4 11 45 19 90 11 68 14 378 14 1701 l1 1617 -120 0
-120 0 -1 -1572 c0 -865 -2 -1602 -5 -1637 -25 -361 -301 -706 -654 -820 -141
-46 -196 -49 -745 -51 -576 -1 -625 -3 -745 -25 -14 -3 -38 -7 -55 -10 -16 -2
-65 -14 -107 -25 -358 -94 -709 -317 -941 -599 l-27 -33 -22 28 c-43 57 -225
231 -300 287 -264 197 -486 291 -858 362 -33 7 -195 10 -960 19 -173 2 -328 6
-345 10 -202 46 -363 128 -492 249 -164 155 -283 398 -297 607 -3 36 -5 773
-5 1638 l-1 1572 -120 0 -120 0 3 -1647z"/>
</g>
</svg>
