<?xml version="1.0" encoding="utf-8"?>
<!-- Generator: Adobe Illustrator 17.1.0, SVG Export Plug-In . SVG Version: 6.00 Build 0)  -->
<!DOCTYPE svg PUBLIC "-//W3C//DTD SVG 1.1//EN" "http://www.w3.org/Graphics/SVG/1.1/DTD/svg11.dtd">
<svg version="1.1" id="Layer_1" xmlns="http://www.w3.org/2000/svg" xmlns:xlink="http://www.w3.org/1999/xlink" x="0px" y="0px"
	 viewBox="0 0 292.1 160.9" enable-background="new 0 0 292.1 160.9" xml:space="preserve">
<g>
	<g>
		<path fill-rule="evenodd" clip-rule="evenodd" fill="#5FB0E2" d="M17.5,154.2c52.4-33.7,111.8-9.4,141.4,6.8
			C118,144.8,57.9,141,17.5,154.2z"/>
		<radialGradient id="SVGID_1_" cx="52.5792" cy="40.8602" r="190.9899" gradientUnits="userSpaceOnUse">
			<stop  offset="0" style="stop-color:#5FB0E2"/>
			<stop  offset="9.123212e-02" style="stop-color:#45A1D7"/>
			<stop  offset="0.208" style="stop-color:#2C93CD"/>
			<stop  offset="0.3383" style="stop-color:#1888C4"/>
			<stop  offset="0.4876" style="stop-color:#0B80BE"/>
			<stop  offset="0.6724" style="stop-color:#027BBB"/>
			<stop  offset="1" style="stop-color:#007ABA"/>
		</radialGradient>
		<path fill-rule="evenodd" clip-rule="evenodd" fill="url(#SVGID_1_)" d="M109.5,0c25.2,0,46.9,14.8,56.5,36.2h-19.7
			c-8.7-10.7-22.1-17.6-37.1-17.6c-14.7,0-27.9,6.6-36.6,17.1c0.5-0.4,0.9-0.7,1.4-1.1c20.6-14.7,48,1.5,48,1.5s-26.1-7.5-43.7,4.8
			C60.8,53.2,63.6,78,63.6,78s-0.1-0.3-0.3-0.9c0.1,0.3,0.1,0.6,0.2,0.9c-4.2-3.1-9.4-5.2-14.9-5.7c-0.7-3.6-1-7.3-1-11.1
			C47.6,27.4,75.3,0,109.5,0L109.5,0z M30.3,139.9v-5.3c16.4-12.1,46.5-27.8,82.8-16.5c55.1,17.3,90.1,40.7,132.7,30.2
			c42.6-10.6,46.3-33.8,46.3-33.8s-7.5,32.8-49.4,40c-41.9,7.2-80.6-0.9-129.7-19.2C79.8,123,47.7,132.6,30.3,139.9L30.3,139.9z
			 M30.3,129.3c3-2.1,6.2-4,9-5.5c-1.4-0.9-2.7-1.9-3.9-3c-2.2-2.2-3.9-4.5-5.1-7v11.4c0.1,0.1,0.2,0.2,0.3,0.3
			c0.5,0.5,1.1,1,1.7,1.4c-0.7-0.3-1.4-0.7-2-1.1V129.3L30.3,129.3z M30.3,76.3V56.8c4-1.4,8.3-2.2,12.7-2.4
			c-0.2,2.2-0.3,4.5-0.3,6.8c0,3.8,0.3,7.6,1,11.3C38.8,72.6,34.3,74,30.3,76.3z M30.3,56.8v19.5c-8.6,5-14.4,14.2-14.4,24.8
			c0,10.6,5.8,19.8,14.4,24.8v3.5c-3.5,2.4-6.9,4.9-9.7,7C8.2,128.4,0,114.6,0,98.9C0,79.4,12.7,62.8,30.3,56.8L30.3,56.8z
			 M30.3,113.7c-5.5-10.7-3.6-22.8-3.6-22.8s-9.3,21.4,3.6,34.2V113.7L30.3,113.7z M30.3,134.6c-8.5,6.3-13.3,11.6-13.3,11.6
			c0,0.2,4.9-2.8,13.3-6.3V134.6z"/>
		<path fill-rule="evenodd" clip-rule="evenodd" fill="#5FB0E2" d="M168.9,126.2c0,0,26.3,13.5,51,11.3c24.7-2.2,32.2-11,32.2-11
			s-9.1,16.7-32.9,17.7C195.5,145.2,168.9,126.9,168.9,126.2z"/>
		<rect x="148.7" y="41.2" fill-rule="evenodd" clip-rule="evenodd" fill="#5FB0E2" width="22.1" height="22.1"/>
		<rect x="236.5" y="102.4" fill-rule="evenodd" clip-rule="evenodd" fill="#0088CF" width="17.1" height="17.1"/>
		<rect x="175.3" y="21" fill-rule="evenodd" clip-rule="evenodd" fill="#5FB0E2" width="29.5" height="29.5"/>
		<rect x="260.9" y="72" fill-rule="evenodd" clip-rule="evenodd" fill="#0088CF" width="29.5" height="29.5"/>
		<rect x="207.6" y="52.7" fill-rule="evenodd" clip-rule="evenodd" fill="#5FB0E2" width="16.4" height="16.4"/>
		<rect x="218.6" y="85" fill-rule="evenodd" clip-rule="evenodd" fill="#5FB0E2" width="16.4" height="16.4"/>
		<rect x="184" y="86.7" fill-rule="evenodd" clip-rule="evenodd" fill="#0088CF" width="16.4" height="16.4"/>
		<rect x="241.6" y="53.3" fill-rule="evenodd" clip-rule="evenodd" fill="#0088CF" width="16.4" height="16.4"/>
	</g>
</g>
</svg>
