<?xml version="1.0" encoding="utf-8"?>
<!-- Generator: Adobe Illustrator 16.0.0, SVG Export Plug-In . SVG Version: 6.00 Build 0)  -->
<!DOCTYPE svg PUBLIC "-//W3C//DTD SVG 1.1//EN" "http://www.w3.org/Graphics/SVG/1.1/DTD/svg11.dtd" [
	<!ENTITY ns_flows "http://ns.adobe.com/Flows/1.0/">
	<!ENTITY ns_extend "http://ns.adobe.com/Extensibility/1.0/">
	<!ENTITY ns_ai "http://ns.adobe.com/AdobeIllustrator/10.0/">
	<!ENTITY ns_graphs "http://ns.adobe.com/Graphs/1.0/">
]>
<svg version="1.1" id="Layer_1" xmlns:x="&ns_extend;" xmlns:i="&ns_ai;" xmlns:graph="&ns_graphs;"
	 xmlns="http://www.w3.org/2000/svg" xmlns:xlink="http://www.w3.org/1999/xlink" xmlns:a="http://ns.adobe.com/AdobeSVGViewerExtensions/3.0/"
	 x="0px" y="0px" width="840.13818px" height="348.14355px" viewBox="0.00024 104.08081 840.13818 348.14355"
	 enable-background="new 0.00024 104.08081 840.13818 348.14355" xml:space="preserve">
<g>
	<path fill="#0088CF" d="M145.2439,280.40796H58.60718V404.9021c0,2.18359,0.78516,4.06641,2.36621,5.64258
		c1.57568,1.58105,3.45801,2.36523,5.64209,2.36523h78.62842v39.31445H66.61548c-13.10449,0-24.26953-4.60742-33.48975-13.83301
		c-9.22559-9.21973-13.83252-20.38477-13.83252-33.48926V288.41577V171.92993h39.31396v69.16357h86.63672V280.40796z"/>
	<path fill="#0088CF" d="M335.25757,241.09351c13.10449,0,24.26416,4.61328,33.48975,13.83301
		c9.21973,9.22559,13.83252,20.38477,13.83252,33.48926v77.90039H207.1228v38.58594c0,2.18359,0.78516,4.06641,2.36621,5.64258
		c1.57568,1.58105,3.45801,2.36523,5.64209,2.36523h167.44873v39.31445H215.1311c-13.10449,0-24.26953-4.60742-33.48975-13.83301
		c-9.22559-9.21973-13.83252-20.38477-13.83252-33.48926V288.41577c0-13.10449,4.60693-24.26367,13.83252-33.48926
		c9.22021-9.21973,20.38525-13.83301,33.48975-13.83301H335.25757z M207.1228,327.00171h136.14307v-38.58594
		c0-2.18359-0.79053-4.06055-2.36621-5.64258c-1.58105-1.5752-3.45801-2.36523-5.64209-2.36523H215.1311
		c-2.18408,0-4.06641,0.79004-5.64209,2.36523c-1.58105,1.58203-2.36621,3.45898-2.36621,5.64258V327.00171z"/>
	<path fill="#0088CF" d="M588.24487,241.09351c13.10449,0,24.26465,4.61328,33.49023,13.83301
		c9.21973,9.22559,13.83203,20.38477,13.83203,33.48926v163.80859h-39.31348V288.41577c0-2.18359-0.79102-4.06055-2.36621-5.64258
		c-1.58105-1.5752-3.45801-2.36523-5.64258-2.36523H468.1189c-2.18457,0-4.06641,0.79004-5.64258,2.36523
		c-1.58105,1.58203-2.36621,3.45898-2.36621,5.64258v163.80859h-39.31348V241.09351H588.24487z"/>
	<path fill="#0088CF" d="M673.42456,171.92993h39.31445v39.31396h-39.31445V171.92993z M673.42456,452.22437V241.09351h39.31445
		v211.13086H673.42456z"/>
	<path fill="#0088CF" d="M749.13843,288.41577V171.92993h39.31445V404.9021c0,2.18359,0.78516,4.06641,2.36621,5.64258
		c1.5752,1.58105,3.45801,2.36523,5.6416,2.36523h39.31445v39.31445h-39.31445c-13.10449,0-24.26953-4.60742-33.48926-13.83301
		c-9.22559-9.21973-13.83301-20.38477-13.83301-33.48926V288.41577z"/>
</g>
<g>
	<rect x="524.07202" y="130.95288" fill="#5FB0E2" width="29.39941" height="29.39941"/>
	<rect x="640.8728" y="212.36694" fill="#0088CF" width="22.74902" height="22.74902"/>
	<rect x="559.45874" y="104.08081" fill="#5FB0E2" width="39.24414" height="39.24316"/>
	<rect x="602.42847" y="146.25122" fill="#5FB0E2" width="21.81445" height="21.81641"/>
	<rect x="617.0603" y="189.21851" fill="#5FB0E2" width="21.81836" height="21.81836"/>
	<rect x="571.03198" y="191.4812" fill="#0088CF" width="21.81738" height="21.81738"/>
	<rect x="647.65796" y="147.04907" fill="#0088CF" width="21.81641" height="21.81738"/>
</g>
</svg>
