<?xml version="1.0" encoding="utf-8"?>
<!-- Generator: Adobe Illustrator 16.0.0, SVG Export Plug-In . SVG Version: 6.00 Build 0)  -->
<!DOCTYPE svg PUBLIC "-//W3C//DTD SVG 1.1//EN" "http://www.w3.org/Graphics/SVG/1.1/DTD/svg11.dtd" [
	<!ENTITY ns_flows "http://ns.adobe.com/Flows/1.0/">
	<!ENTITY ns_extend "http://ns.adobe.com/Extensibility/1.0/">
	<!ENTITY ns_ai "http://ns.adobe.com/AdobeIllustrator/10.0/">
	<!ENTITY ns_graphs "http://ns.adobe.com/Graphs/1.0/">
]>
<svg version="1.1" id="Layer_1" xmlns:x="&ns_extend;" xmlns:i="&ns_ai;" xmlns:graph="&ns_graphs;"
	 xmlns="http://www.w3.org/2000/svg" xmlns:xlink="http://www.w3.org/1999/xlink" xmlns:a="http://ns.adobe.com/AdobeSVGViewerExtensions/3.0/"
	 x="0px" y="0px" width="960px" height="410px" viewBox="-480.431 266.572 960 410"
	 enable-background="new -480.431 266.572 960 410" xml:space="preserve">
<g>
	<path fill="#0088CF" d="M-332.431,473.572h-102v146.939c0,2.571,1.035,4.604,2.895,6.46c1.854,1.862,4.179,2.601,6.747,2.601
		h92.359v47h-92.359c-15.408,0-28.535-5.589-39.376-16.454c-10.848-10.857-16.265-24.173-16.265-39.606V483.328V346.572h46v81h102
		V473.572z"/>
	<path fill="#0088CF" d="M-108.927,427.572c15.408,0,28.958,5.446,39.807,16.304c10.84,10.865,16.69,24.019,16.69,39.452v91.244
		h-208v45.939c0,2.571,1.346,4.604,3.205,6.46c1.854,1.862,4.49,2.601,7.057,2.601h197.738v47h-197.738
		c-15.407,0-28.345-5.589-39.187-16.454c-10.848-10.857-16.075-24.173-16.075-39.606V483.328c0-15.434,5.228-28.587,16.075-39.452
		c10.842-10.857,23.78-16.304,39.187-16.304H-108.927z M-260.431,528.572h161v-45.244c0-2.571-0.969-4.944-2.821-6.809
		c-1.86-1.854-4.106-2.947-6.675-2.947h-141.242c-2.567,0-5.203,1.094-7.057,2.947c-1.859,1.864-3.205,4.237-3.205,6.809V528.572z"
		/>
	<path fill="#0088CF" d="M188.53,427.572c15.407,0,28.23,5.446,39.077,16.304c10.841,10.865,15.963,24.019,15.963,39.452v193.244
		h-46V483.328c0-2.571-0.742-4.944-2.594-6.809c-1.859-1.854-3.878-2.947-6.446-2.947H47.288c-2.568,0-5.432,1.094-7.286,2.947
		c-1.858,1.864-3.433,4.237-3.433,6.809v193.244h-45v-249H188.53z"/>
	<path fill="#0088CF" d="M288.569,346.572h46v46h-46V346.572z M288.569,676.572v-249h46v249H288.569z"/>
	<path fill="#0088CF" d="M377.569,483.328V346.572h46v273.939c0,2.571,1.103,4.604,2.962,6.46c1.854,1.862,4.245,2.601,6.813,2.601
		h46.225v47h-46.225c-15.409,0-28.604-5.589-39.444-16.454c-10.847-10.857-16.331-24.173-16.331-39.606V483.328z"/>
</g>
<rect x="112.569" y="297.572" fill="#5FB0E2" width="35" height="35"/>
<rect x="250.569" y="393.572" fill="#0088CF" width="27" height="27"/>
<rect x="154.569" y="266.572" fill="#5FB0E2" width="46" height="46"/>
<rect x="205.569" y="315.572" fill="#5FB0E2" width="25" height="26"/>
<rect x="222.569" y="366.572" fill="#5FB0E2" width="25" height="26"/>
<rect x="168.569" y="369.572" fill="#0088CF" width="25" height="25"/>
<rect x="258.569" y="316.572" fill="#0088CF" width="25" height="26"/>
</svg>
